<?xml version="1.0" standalone="no"?>
<!DOCTYPE svg PUBLIC "-//W3C//DTD SVG 20010904//EN"
 "http://www.w3.org/TR/2001/REC-SVG-20010904/DTD/svg10.dtd">
<svg version="1.0" xmlns="http://www.w3.org/2000/svg"
 width="35px" height="35px" viewBox="0 0 512.000000 512.000000"
 preserveAspectRatio="xMidYMid meet">

<g transform="translate(0.000000,512.000000) scale(0.100000,-0.100000)"
fill="#000000" stroke="none">
<path d="M2650 3200 c0 -1878 2 -1802 -48 -1829 -34 -18 -61 -13 -131 29 -287
167 -664 179 -959 31 -265 -133 -415 -362 -399 -611 19 -289 246 -524 597
-618 81 -21 117 -25 250 -26 167 0 256 15 390 70 211 86 377 252 443 444 l22
65 3 1559 c2 1461 4 1561 20 1579 39 44 56 42 196 -27 72 -35 187 -91 256
-124 168 -81 239 -129 341 -232 94 -94 153 -194 186 -320 25 -92 24 -348 -1
-485 -54 -290 -194 -549 -386 -712 -36 -31 -69 -62 -73 -70 -12 -20 19 -63 45
-63 28 0 145 90 235 182 369 377 482 984 263 1418 -91 180 -223 326 -535 595
-110 95 -238 210 -284 257 -185 189 -261 348 -261 551 l0 87 -85 0 -85 0 0
-1750z"/>
</g>
</svg>
