<?xml version="1.0" standalone="no"?>
<!DOCTYPE svg PUBLIC "-//W3C//DTD SVG 20010904//EN"
 "http://www.w3.org/TR/2001/REC-SVG-20010904/DTD/svg10.dtd">
<svg version="1.0" xmlns="http://www.w3.org/2000/svg"
 width="35px" height="35px" viewBox="0 0 512.000000 512.000000"
 preserveAspectRatio="xMidYMid meet">

<g transform="translate(0.000000,512.000000) scale(0.100000,-0.100000)"
fill="#000000" stroke="none">
<path d="M2801 5072 c-97 -100 -238 -340 -301 -513 -63 -171 -93 -420 -71
-599 7 -52 25 -169 41 -259 17 -90 30 -172 30 -181 0 -10 -49 -62 -112 -118
-459 -405 -706 -764 -795 -1154 -11 -49 -16 -118 -16 -213 0 -248 57 -402 208
-563 169 -180 380 -300 635 -362 76 -19 124 -23 235 -24 145 0 211 11 309 54
l45 19 19 -52 c72 -193 97 -486 57 -657 -66 -284 -258 -417 -553 -382 -101 12
-222 44 -257 68 -17 13 -12 14 47 14 130 0 237 64 293 176 27 53 30 69 30 149
0 78 -4 97 -28 142 -35 68 -89 120 -157 152 -46 22 -68 26 -140 25 -109 0
-172 -26 -235 -96 -59 -66 -80 -130 -79 -238 2 -99 24 -172 80 -255 42 -65 86
-103 163 -143 82 -43 150 -56 296 -56 152 0 209 11 320 65 196 94 291 247 302
487 7 134 -6 238 -55 461 -23 108 -32 166 -25 168 24 8 191 124 236 163 117
103 200 253 218 392 12 88 6 220 -12 297 -6 25 -29 83 -51 129 -96 203 -298
313 -582 316 l-120 2 -64 292 -65 292 49 42 c27 23 92 85 146 138 205 207 315
397 380 658 30 120 32 433 4 562 -40 183 -119 371 -221 524 -96 144 -129 157
-204 78z m185 -288 c49 -23 98 -83 125 -150 30 -78 33 -263 5 -369 -23 -87
-81 -214 -134 -292 -83 -123 -326 -379 -389 -411 l-41 -21 -5 27 c-14 71 -18
259 -8 377 23 266 71 460 159 634 93 185 187 253 288 205z m-336 -2046 l56
-257 -45 -11 c-25 -6 -80 -28 -121 -48 -100 -49 -230 -177 -277 -274 -101
-206 -79 -406 60 -541 51 -50 150 -107 163 -94 4 3 -8 24 -25 46 -60 76 -76
125 -76 237 0 96 2 103 38 176 42 86 98 142 181 183 46 22 154 50 163 42 3 -4
213 -946 213 -959 0 -14 -64 -40 -157 -64 -156 -39 -357 -31 -502 20 -127 46
-250 130 -331 227 -65 78 -96 132 -136 239 -29 77 -35 107 -40 212 -16 300 73
508 325 758 129 129 444 392 450 376 3 -6 30 -127 61 -268z m354 -560 c105
-27 202 -93 254 -175 110 -173 93 -412 -43 -590 -35 -46 -144 -143 -161 -143
-5 0 -54 199 -108 445 -54 245 -101 455 -104 467 -5 19 -2 20 59 13 35 -3 81
-11 103 -17z"/>
</g>
</svg>
