<?xml version="1.0" standalone="no"?>
<!DOCTYPE svg PUBLIC "-//W3C//DTD SVG 20010904//EN"
 "http://www.w3.org/TR/2001/REC-SVG-20010904/DTD/svg10.dtd">
<svg version="1.0" xmlns="http://www.w3.org/2000/svg"
 width="412.000000pt" height="607.000000pt" viewBox="0 0 412.000000 607.000000"
 preserveAspectRatio="xMidYMid meet">

<g transform="translate(0.000000,607.000000) scale(0.100000,-0.100000)"
fill="" stroke="none">
<path d="M2350 6010 c-189 -35 -368 -108 -504 -205 -85 -60 -223 -206 -271
-285 -21 -36 -43 -68 -48 -71 -5 -4 -54 -9 -110 -13 -565 -38 -967 -372 -1087
-901 -55 -242 -54 -564 4 -772 74 -271 233 -519 507 -793 152 -152 209 -225
259 -333 40 -84 80 -213 80 -256 0 -23 2 -23 58 -18 65 6 189 -7 277 -28 148
-37 333 -161 632 -427 313 -277 481 -549 513 -829 12 -112 6 -183 -27 -283
-15 -46 -17 -48 -47 -43 -88 15 -255 105 -367 199 -168 140 -332 415 -389 652
-22 90 -39 263 -34 340 4 66 -3 74 -33 34 -66 -88 -133 -282 -133 -384 0 -49
-6 -53 -43 -24 -85 67 -314 145 -406 138 l-43 -3 68 -45 c100 -65 226 -195
345 -355 275 -371 568 -578 929 -657 140 -31 437 -31 566 0 544 128 901 496
1021 1052 23 108 43 298 43 414 0 464 -207 835 -711 1274 -137 119 -187 174
-241 264 -55 92 -108 239 -108 298 0 19 -8 20 -112 20 -256 1 -423 80 -665
313 -260 252 -382 439 -435 666 -11 47 -23 92 -27 100 -4 8 -41 28 -81 45 -69
28 -85 30 -194 31 l-119 0 -9 -30 c-15 -54 -38 -278 -38 -371 0 -284 86 -557
253 -804 80 -119 161 -214 312 -370 78 -80 155 -163 172 -185 63 -83 128 -242
157 -386 l6 -26 142 -6 c257 -9 358 -58 698 -341 200 -166 379 -356 474 -503
111 -171 166 -344 166 -513 -2 -330 -269 -681 -611 -805 -115 -41 -279 -68
-279 -46 0 5 11 33 24 63 75 170 119 363 137 608 19 260 -19 468 -126 685
-119 244 -300 459 -602 719 -172 147 -265 288 -314 474 l-23 90 -140 5 c-153
6 -217 21 -330 78 -77 39 -102 57 -206 145 -232 196 -427 446 -497 638 -81
224 -69 497 31 697 115 230 308 353 592 378 263 23 470 -43 657 -209 51 -45
143 -162 193 -245 92 -151 166 -373 182 -540 l7 -70 19 28 c37 55 86 245 86
335 0 36 7 37 107 23 81 -11 293 16 293 37 0 5 -24 14 -52 21 -151 38 -274
120 -478 316 -212 204 -344 290 -562 368 -16 6 -15 11 7 73 99 274 333 439
653 459 414 28 737 -202 916 -651 38 -97 86 -271 86 -315 0 -38 11 -89 20 -89
7 0 26 41 53 115 8 22 20 78 26 125 7 47 15 100 17 118 4 27 9 32 22 26 33
-14 195 -16 270 -4 81 14 148 39 106 40 -31 0 -137 35 -192 63 -116 58 -205
129 -367 292 -186 187 -382 302 -625 367 -113 30 -361 34 -500 8z m-730 -1125
c0 -4 -8 -20 -17 -38 -16 -30 -18 -31 -21 -9 -2 13 2 30 8 38 12 14 30 19 30
9z m10 -217 c-41 -67 -39 -65 -50 -48 -20 31 -10 55 32 83 23 15 44 25 46 22
2 -2 -10 -28 -28 -57z m77 -116 c-8 -9 -31 -43 -50 -75 -37 -62 -50 -62 -59 1
-5 32 -1 36 56 72 58 37 85 38 53 2z m29 -187 c-32 -47 -61 -87 -66 -90 -4 -2
-14 14 -23 35 l-16 40 52 38 c83 61 100 72 106 67 2 -3 -21 -43 -53 -90z m130
-42 c-9 -22 -128 -183 -136 -183 -4 0 -14 15 -23 34 -19 40 -21 36 88 115 80
57 79 57 71 34z m-1341 -55 c-4 -13 -13 -30 -21 -38 -12 -12 -14 -12 -14 7 0
32 10 53 27 53 10 0 12 -6 8 -22z m1438 -51 c-4 -7 -39 -56 -77 -110 -74 -104
-80 -106 -111 -46 -16 30 -22 24 150 147 34 24 50 28 38 9z m-1419 -146 c-20
-33 -40 -61 -45 -61 -5 0 -9 18 -9 39 0 36 4 42 42 65 23 14 44 24 45 22 2 -2
-13 -31 -33 -65z m1516 51 c0 -14 -150 -217 -161 -217 -6 0 -23 14 -36 32
l-25 32 109 80 c117 87 113 84 113 73z m104 -104 c-24 -40 -167 -228 -174
-228 -4 0 -20 16 -35 36 -26 34 -26 36 -9 49 11 8 62 45 114 84 93 69 118 83
104 59z m-1574 -107 c-50 -78 -70 -97 -70 -67 0 7 -3 27 -6 44 -6 29 -3 33 56
72 35 22 65 38 67 36 3 -2 -19 -41 -47 -85z m1674 7 c-25 -41 -167 -228 -173
-228 -4 0 -22 15 -39 33 l-32 33 117 87 c115 84 142 100 127 75z m-1614 -147
c-33 -51 -65 -89 -70 -86 -14 9 -33 76 -24 85 21 19 148 99 152 96 2 -3 -24
-45 -58 -95z m1733 66 c-23 -39 -179 -246 -185 -247 -12 0 -68 52 -68 64 0 10
244 196 257 196 2 0 0 -6 -4 -13z m111 -89 c-19 -33 -187 -248 -193 -248 -11
0 -77 58 -71 62 16 15 264 198 267 198 2 0 1 -6 -3 -12z m-1775 -109 l-72
-102 -19 37 c-11 21 -18 41 -16 46 4 12 170 131 176 126 2 -3 -29 -51 -69
-107z m1885 19 c-26 -43 -186 -248 -194 -248 -5 0 -24 13 -42 30 -32 28 -33
29 -13 43 11 8 70 53 130 100 107 83 134 100 119 75z m-1793 -127 c-39 -55
-76 -103 -81 -106 -11 -7 -52 54 -47 70 5 13 189 146 195 140 3 -2 -28 -49
-67 -104z m1903 37 c-22 -37 -186 -248 -192 -248 -12 0 -78 57 -72 62 21 19
263 198 266 198 3 0 2 -6 -2 -12z m-1788 -116 c-32 -44 -70 -94 -87 -113 l-29
-34 -25 30 c-14 17 -25 35 -25 40 0 12 211 167 218 160 3 -2 -21 -40 -52 -83z
m1908 36 c-6 -10 -174 -237 -190 -257 -6 -7 -85 52 -82 60 3 8 268 209 275
209 2 0 1 -6 -3 -12z m-1750 -50 c-34 -57 -170 -238 -179 -238 -14 0 -58 58
-53 70 2 8 226 177 236 179 2 1 0 -5 -4 -11z m1869 -32 c-33 -56 -191 -255
-203 -255 -8 0 -28 11 -45 24 -27 22 -28 26 -14 40 16 16 262 204 267 205 2 0
-1 -6 -5 -14z m-1784 -98 c-13 -18 -54 -75 -93 -126 l-69 -93 -34 33 c-18 18
-32 36 -31 40 4 10 230 178 240 178 5 0 -1 -15 -13 -32z m1885 -5 c-32 -50
-177 -238 -185 -241 -11 -4 -81 49 -77 58 3 8 269 210 277 210 2 0 -5 -12 -15
-27z m-1760 -65 c-23 -39 -175 -238 -182 -238 -15 0 -73 63 -65 71 21 21 238
179 245 179 5 0 6 -6 2 -12z m1800 -120 c-42 -57 -86 -113 -97 -125 l-20 -22
-33 26 c-19 14 -34 29 -34 33 0 10 252 201 258 196 2 -3 -31 -51 -74 -108z
m-1711 4 c-15 -21 -57 -77 -93 -125 -35 -48 -69 -87 -75 -87 -15 1 -67 49 -63
60 4 12 238 190 251 190 5 0 -4 -17 -20 -38z m1901 16 c-4 -7 -48 -68 -97
-135 l-90 -122 -27 19 c-46 33 -52 45 -32 63 21 19 246 187 250 187 2 0 0 -6
-4 -12z m-1767 -73 c-12 -28 -180 -245 -191 -245 -7 0 -27 13 -46 28 l-34 29
135 101 c74 56 136 102 138 102 2 0 1 -7 -2 -15z m1861 -43 c-70 -95 -170
-222 -176 -222 -4 0 -23 13 -41 28 l-34 28 123 92 c122 91 154 109 128 74z
m-1738 -30 c0 -13 -191 -257 -204 -259 -6 -2 -26 10 -44 25 l-34 28 139 106
c151 117 143 111 143 100z m1768 -166 c-46 -64 -89 -116 -95 -116 -7 0 -27 13
-44 28 l-31 28 123 92 c67 51 124 90 126 88 3 -2 -33 -56 -79 -120z m-1713 -7
c-31 -41 -74 -98 -96 -126 -22 -29 -42 -53 -46 -53 -14 0 -74 52 -71 62 5 14
263 206 266 198 2 -4 -22 -41 -53 -81z m1883 7 c-25 -46 -153 -216 -163 -216
-5 1 -23 14 -39 30 -21 21 -26 34 -19 41 10 10 226 168 231 169 1 0 -3 -11
-10 -24z m-1715 -18 c-6 -7 -52 -68 -102 -135 -100 -132 -100 -132 -149 -80
l-23 24 133 101 c125 94 164 119 141 90z m115 -86 c-57 -80 -191 -252 -196
-252 -15 0 -82 54 -75 61 13 13 276 209 280 209 2 0 -2 -8 -9 -18z m1692 0 c0
-5 -34 -55 -76 -112 l-75 -102 -30 28 c-16 15 -29 31 -29 36 0 7 197 158 207
158 1 0 3 -4 3 -8z m-1586 -94 c-4 -7 -48 -66 -97 -130 -95 -126 -90 -124
-146 -80 l-23 19 43 36 c75 62 214 166 222 166 5 1 5 -5 1 -11z m1606 -117
c-34 -50 -67 -94 -72 -97 -6 -4 -23 7 -39 24 l-29 31 52 39 c88 64 143 100
147 97 1 -2 -25 -45 -59 -94z m-1486 37 c-13 -22 -156 -212 -176 -235 l-20
-21 -39 26 c-21 15 -37 30 -36 34 2 7 267 208 274 208 2 0 1 -6 -3 -12z m1560
-163 c-32 -47 -61 -85 -65 -85 -9 0 -53 59 -48 65 14 12 155 105 162 105 4 0
-18 -38 -49 -85z m-1549 -57 c-48 -62 -92 -114 -98 -115 -7 -2 -25 8 -42 22
-24 20 -27 27 -17 37 32 33 237 183 240 176 2 -4 -36 -58 -83 -120z m105 -97
l-91 -121 -34 26 c-19 15 -35 31 -35 38 1 14 240 190 248 182 2 -3 -37 -59
-88 -125z m1503 11 c-21 -34 -43 -58 -48 -54 -18 13 -37 54 -28 62 23 21 108
68 111 61 2 -5 -14 -36 -35 -69z m-1323 3 c0 -6 -113 -164 -146 -203 l-22 -26
-36 32 -36 32 112 84 c107 80 128 93 128 81z m1388 -92 c-34 -70 -43 -81 -55
-71 -20 16 -16 44 10 61 23 17 51 22 45 10z m-1373 -127 c-42 -58 -80 -106
-85 -106 -15 0 -61 63 -53 71 18 18 207 148 211 145 2 -2 -31 -52 -73 -110z
m142 -29 c-11 -29 -122 -177 -132 -177 -6 0 -22 14 -34 31 l-23 31 23 16 c169
121 176 125 166 99z m24 -200 c-28 -42 -55 -79 -61 -82 -11 -7 -49 32 -50 51
0 12 150 117 157 110 3 -2 -18 -38 -46 -79z m75 -119 c-14 -24 -34 -54 -44
-66 l-18 -24 -18 27 c-10 15 -15 32 -13 40 6 13 109 76 115 70 2 -2 -8 -23
-22 -47z m40 -135 c-8 -16 -21 -37 -29 -48 -15 -19 -16 -19 -29 9 -9 21 -9 31
-2 33 6 2 20 10 30 18 33 25 47 19 30 -12z"/>
<path d="M672 1377 c-65 -93 -104 -204 -122 -340 -4 -38 -10 -71 -13 -73 -2
-3 -33 13 -68 35 -75 45 -142 74 -219 95 -74 20 -180 31 -180 18 0 -5 26 -26
58 -47 93 -62 206 -180 332 -345 203 -266 392 -438 600 -544 193 -98 342 -135
580 -143 192 -6 331 14 495 74 83 30 262 124 329 172 81 59 169 141 161 150
-4 3 -46 11 -93 17 l-87 11 -50 -47 c-122 -115 -267 -199 -413 -241 -110 -31
-269 -44 -375 -29 -101 14 -161 32 -257 79 -81 39 -91 45 -165 102 -185 144
-343 375 -415 609 -43 137 -51 188 -59 350 l-6 145 -33 -48z"/>
</g>
</svg>
